<?xml version="1.0" encoding="UTF-8"?>
<svg id="Layer_4" data-name="Layer 4" xmlns="http://www.w3.org/2000/svg" viewBox="0 0 1001 1034">
  <defs>
    <style>
      .cls-1 {
        stroke: #000;
        stroke-miterlimit: 10;
        stroke-width: .25px;
      }

      .cls-2 {
        letter-spacing: -.01em;
      }

      .cls-3 {
        font-family: FilosofiaOT, 'Filosofia OT';
        font-size: 130px;
      }
    </style>
  </defs>
  <g>
    <g id="Generative_Object_0_0_" data-name="Generative Object (0, 0)">
      <path class="cls-1" d="M211.96,353.65s-28.54,11.55-46.56,28.96c-2.03,1.97-3.64,3.91-4.01,4.35-7.65,8.98-17.88,23.67-4.7,43.29,2.79,4.15,7.42,10.07,9.88,12.82,23.98,26.85,37.96,36.29,83.17,89.22,23.2,27.15,30.96,42.73,34.41,56.16,11.63,45.19,5.19,71.09-33.9,103.76-40.51,33.86-92.56,61.22-137.81,68.62-25.82,4.21-60.43,9.02-83.07-7.59-15.11-11.05-19.46-31.06-15.22-48.49,3.21-15.57,13.98-28.78,25.88-37.89,10.73-8.36,22.32-14.55,34.29-20.22,16.95-7.96,34.71-14.64,52.18-20.94,45.57-16.07,93.15-31.04,138.73-47.11,41.59-14.27,105.91-39.3,147.55-53.44,7.46-2.53,5.1-.93,7.74,6.5l2.19,4.84c-4.86,3.66-11.86,8.64-20.69,13.9-16.85,10.03-19.95,11.24-42.07,19.67-23.64,9-38.51,13.99-59.3,21.31-29.36,10.35-31.14,11.32-77.96,27.93-7.15,2.54-12.33,4.37-20.66,7.36-20.69,7.44-37.42,13.66-48.34,17.77h0c-17.45,6.18-32,12.04-43.09,16.76-10.48,4.46-18.25,7.46-30.21,14.23-2.07,1.17-11.57,5.33-21.53,14.57-3.47,3.21-7.36,6.89-8.88,8.69-5.23,6.2-8.84,17.5-4.51,23.99,6.33,9.49,18.18,11.46,27.88,11.57,14.11-.2,29.41-.49,43.43-3.22,36.03-6.35,68-23.57,98.37-45.59,5.21-3.78,11.92-9.45,16.61-14.31,10.15-10.5,19.65-24.43,22.03-38.55,3.1-16.68-3.23-35.41-9.65-50.96-10.54-25.27-29.67-47.49-48.29-67.81-16.47-18.17-36.48-33.95-51.32-53.83-8.6-11.32-17.08-23.04-19.62-37.84-3.92-20.02,4.63-38.55,17.62-52.85,11-13.17,26.19-22.71,41.47-29.6,17.2-7.8,34.68-14.29,52.48-20.28,12.37-4.09,25-7.99,37.32-11.75,27.09-7.3,53.71-16.03,81.57-19.39,16.97-1.88,25.84-3.24,42.93-4.13,10.11-.53,29.16,1.83,33.85,4.3,9.86,5.18,15.05,13.35,17.58,19.7,4.84,12.15,2.11,26.78.35,32.22-1.15,3.55-2.37,7.74-4.42,11.79-1.99,3.92-6.55,12.93-16.52,22.94-12.33,12.37-24.92,23.86-33.61,22.69-9.16-1.24-14.98-14.48-14.7-23.32.13-4.13,4.09-8.77,5.68-11.26,3.93-6.17,10.31-9.21,13.19-10.67,2.25-.81,9.1-3.63,12.97-10.88,4.15-7.76,3.53-18.08-1.77-24.07-3.78-4.28-9.12-5.4-11.87-5.84-38.59-6.17-114.58,16.33-114.58,16.33-25.44,6.65-45.82,14.14-72.49,25.62Z"/>
    </g>
    <path class="cls-1" d="M480.7,505.39c66-73.28,113.42-125.45,135.59-148.04,0,0,32.1-32.72,54.39-64.04.92-1.29,1.84-2.58,2.76-3.87,3.05-4.27,5.43-7.59,7.06-9.84l.1-.14c3.94-5.44,11.32-7.08,17.2-3.83l1.1.61c1.42.79,2.48,2.11,2.86,3.69.59,2.44.38,5.55-2.05,9.07-2.88,4.17-6.31,8.94-10.22,14.2-42.52,59.82-210.3,307.33-261.47,419.92-1.29,2.83-5.27,2.89-6.65.11l-2.21-4.47c-2.15-4.35-2.41-9.38-.72-13.93,24.79-66.75,78.65-163.27,129.8-240.69-32.45,35.17-61.09,70.09-88.59,94.12l-1,.87c-24.87,21.76-43.11,35.15-56.12,35.16-3.61,0-6.81-1.03-9.64-3.19-2.95-2.25-7.31-15.16-3.58-31.51,4.85-21.2,22.59-43.42,48.4-52.31,17.78-6.12,33.85-3.99,42.99-1.88ZM456.65,524.83c-3.52,0-7.51.56-11.45,2.07-15.82,6.04-29.95,21.5-35.98,39.4l-.61,1.81c-.43,1.28.96,2.41,2.11,1.72,6.23-3.71,16.69-11.27,34.1-26.51,0,0,1.01-.88,1.01-.88,4.82-4.22,9.81-8.72,14.93-13.46,1.49-1.38.64-3.88-1.39-4.05-.87-.07-1.78-.11-2.72-.11Z"/>
    <path class="cls-1" d="M903.03,301.49c-4.91-3.02-14.37.14-18.49,1.97-8.77,3.9-31.03,21.98-31.03,21.98-12.97,11.14-22.37,21.13-31.12,30.49-3.79,4.05-2.92,3.24-16.02,17.74-14.45,16-17.57,19.26-25.21,27.75-13.57,15.07-23.7,26.92-30.4,34.78-4.43,5.2-18.23,21.43-34.5,41.65-24.89,30.93-40.4,53.22-64.05,84.05-23.56,30.72-50.39,64.33-65.7,84.91-1.91,2.56-5.66,2.79-7.87.48l-2.93-3.06c-2.05-2.15-2.3-5.44-.59-7.88,14.62-20.82,36.46-55.99,60.42-87.23,19.84-25.87,42.33-55.19,63.93-83.9,59.53-79.1,106.53-136.39,142.96-165.93,30.7-24.9,50.55-39.27,74.93-30.29,8.39,3.09,15.5,8.6,17.14,19.45,2.49,16.43-1.08,54.86-67.55,173.04-26.62,47.33-59.99,106.53-100.99,173.78-22.75,37.31-52.29,81.81-83.24,126.66-3.62,5.24-10.38,7.29-16.3,4.92-2.87-1.15-4.09-4.54-2.61-7.26,28.48-52.39,53.01-97.95,77.7-135.8,42.36-64.93,45.55-70.18,104.84-173.04,0,0,63.11-113.62,60.5-143.93-.34-3.93-3.85-5.33-3.85-5.33Z"/>
    <path class="cls-1" d="M589.21,497.73l-.36-1.38c-1.02-3.92,1.38-7.92,5.33-8.84,31.01-7.22,154.08-35.52,209.64-43.09s124.14-7.84,180.27-1.62c1.72.19,3.14,1.4,3.62,3.06h0c1.69,5.82-2.49,11.7-8.54,12.01-81.28,4.2-139.83,9.66-196.05,16.68-58.03,7.25-119,18.85-176.15,33.6-7.79,2.01-15.74-2.64-17.77-10.42Z"/>
    <path class="cls-1" d="M713.7,305.84c7.5-7.64,10.11-10.07,11.55-11.38,2.71-2.48,5.31-4.73,7.75-6.77,2.7-2.25,6.53-2.53,9.52-.67h0c10.05,6.25,10.77,20.6,1.4,27.84-7.2,5.56-14.54,10.87-18.59,13.85-1.64,1.21-8.05,5.52-13.17,8.76-3.78,2.39-8.8,1.28-11.21-2.49-3.17-4.98-3.1-8.61-2.88-10.36.3-2.31,1.23-4.12,15.62-18.78Z"/>
  </g>
  <text class="cls-3" transform="translate(162 882.28)"><tspan x="0" y="0">A</tspan><tspan class="cls-2" x="75.53" y="0">DV</tspan><tspan x="230.49" y="0">OC</tspan><tspan class="cls-2" x="387.66" y="0">A</tspan><tspan x="461.23" y="0">CIA</tspan></text>
</svg>